<?xml version="1.0" encoding="UTF-8"?>
<svg id="Layer_1" xmlns="http://www.w3.org/2000/svg" version="1.1" viewBox="0 0 1000 1000">
  <!-- Generator: Adobe Illustrator 29.1.0, SVG Export Plug-In . SVG Version: 2.1.0 Build 142)  -->
  <defs>
    <style>
      .st0 {
        fill: none;
        stroke: #fff;
        stroke-miterlimit: 10;
        stroke-width: 16px;
      }

      .st1 {
        fill: #565655;
      }

      .st2 {
        fill: #fff;
        font-family: Arial-Black, 'Arial Black';
        font-size: 136.4px;
        font-weight: 800;
      }

      .st3 {
        fill: #a19e9c;
      }

      .st4 {
        fill: #3b3735;
      }
    </style>
  </defs>
  <path class="st3" d="M756,870.9c-73.4,64.2-170.6,102.7-276.9,102.7s-201.7-38.5-276.9-102.7c-1.8-1.8-1.8-3.7,0-3.7l95.4-95.4c1.8-1.8,3.7-1.8,3.7,0,47.7,38.5,110,62.4,176.1,62.4s128.4-23.8,176.1-62.4c1.8-1.8,3.7-1.8,3.7,0l95.4,95.4c5.5,1.8,5.5,3.7,3.7,3.7Z"/>
  <path class="st3" d="M259,373.9c-38.5,47.7-62.4,110-62.4,177.9s23.8,128.4,62.4,177.9c1.8,1.8,1.8,3.7,0,3.7l-95.4,95.4c-1.8,1.8-3.7,1.8-3.7,0-66-75.2-104.5-172.4-104.5-276.9s38.5-203.6,102.7-276.9c1.8-1.8,3.7-1.8,3.7,0l95.4,95.4c3.7,0,3.7,1.8,1.8,3.7Z"/>
  <path class="st4" d="M757.8,496.7l183.4-183.4c1.8-1.8,1.8-3.7,0-3.7l-88-88c-1.8-1.8-3.7-1.8-3.7,0l-150.4,150.4c-1.8,1.8-1.8,3.7,0,3.7,27.5,34.8,47.7,75.2,56.9,121,0,0,1.8,0,1.8,0Z"/>
  <path class="st4" d="M660.6,331.7l210.9-212.7c1.8-1.8,1.8-3.7,0-3.7l-88-89.9h-5.5l-243.9,245.8c-1.8,1.8,0,1.8,0,1.8,45.8,9.2,86.2,29.3,121,56.9,1.8,1.8,3.7,1.8,5.5,1.8Z"/>
  <path class="st3" d="M303,331.7c42.2-33,91.7-55,148.6-60.5,1.8,0,3.7-1.8,5.5-1.8l126.5-126.5c1.8-1.8,0-1.8,0-3.7-33-7.3-67.9-12.8-102.7-12.8-108.2,0-205.4,40.3-278.8,102.7-1.8,1.8-1.8,3.7,0,3.7l97.2,97.2c0,1.8,1.8,1.8,3.7,1.8ZM759.6,577.4c-5.5,55-27.5,106.4-60.5,148.6-1.8,1.8-1.8,3.7,0,3.7l97.2,97.2c1.8,1.8,3.7,1.8,3.7,0,64.2-75.2,102.7-170.6,102.7-276.9s-3.7-69.7-12.8-102.7c0-1.8-1.8-1.8-3.7,0l-126.5,126.5s0,3.7,0,3.7Z"/>
  <circle class="st4" cx="479" cy="551.8" r="159.6"/>
  <g>
    <g>
      <rect class="st1" x="482.9" y="356" width="265.1" height="185.7" rx="60" ry="60"/>
      <rect class="st0" x="482.9" y="356" width="265.1" height="185.7" rx="60" ry="60"/>
    </g>
    <text class="st2" transform="translate(519.5 496.3)"><tspan x="0" y="0">42</tspan></text>
  </g>
</svg>